# xmcd
#
# Track frame offsets:
#        150
#        5475
#        26948
#
# Disc length: 702 seconds
#
# Revision: 0
# Processed by: cddbd v1.5.1PL0 Copyright (c) Steve Scherf et al.
# Submitted via: ExactAudioCopy v0.95b2
#
DISCID=1d02bc03
DTITLE=cali gari - THE MURAI KENJIRO GROUP
DYEAR=2001
DGENRE=Metal
TTITLE0=Seashore Bassnap
TTITLE1=Falling Angel
TTITLE2=True Love
EXTD=
EXTT0=
EXTT1=
EXTT2=
PLAYORDER=
